<svg width="22" height="29" fill="none" xmlns="http://www.w3.org/2000/svg"><g clip-path="url(#clip0_16_183)"><path d="M11.002 0C4.933 0 0 4.898 0 10.923c0 7.946 10.16 17.517 10.593 17.92a.603.603 0 00.409.16.604.604 0 00.41-.16c.432-.407 10.592-10.052 10.592-17.92C22 4.898 17.067 0 11.002 0zm0 15.557c-2.574 0-4.667-2.078-4.667-4.634 0-2.555 2.093-4.633 4.667-4.633s4.667 2.078 4.667 4.633c0 2.556-2.093 4.634-4.667 4.634z" fill="#E18A04"/></g><defs><clipPath id="clip0_16_183"><path fill="#fff" d="M0 0h22v29H0z"/></clipPath></defs></svg>