<svg width="53" height="62" fill="none" xmlns="http://www.w3.org/2000/svg"><path d="M47.865 14.703c-.698-2.9-1.85-5.432-3.459-7.588-1.61-2.162-3.713-3.891-6.323-5.178C35.48.647 32.271 0 28.458 0h-8.005c-3.812 0-7.02.646-9.625 1.938-2.61 1.286-4.713 3.015-6.323 5.177-1.61 2.161-2.76 4.687-3.453 7.588C.35 17.604 0 21.09 0 25.156v34.875c0 .344.083.625.255.86.167.234.443.432.828.604.38.166.912.291 1.589.38.677.083 1.526.125 2.542.125 1.015 0 1.927-.042 2.604-.125.677-.089 1.208-.214 1.588-.38.38-.172.656-.37.828-.604.167-.24.256-.521.256-.86V26.552c0-3.265.255-5.89.76-7.88.51-1.995 1.25-3.709 2.224-5.151a9.66 9.66 0 013.776-3.302c1.547-.76 3.338-1.146 5.37-1.146h3.682c2.031 0 3.823.38 5.37 1.146a9.702 9.702 0 013.776 3.302c.974 1.442 1.713 3.156 2.224 5.15.51 1.99.76 4.616.76 7.881v33.48c0 .343.084.624.255.859.167.234.443.432.829.604.38.166.911.291 1.588.38.677.083 1.547.125 2.604.125 1.058 0 1.865-.042 2.542-.125.677-.089 1.208-.214 1.589-.38.38-.172.656-.37.828-.604.166-.24.255-.521.255-.86V25.156c0-4.067-.35-7.552-1.052-10.453h-.005z" fill="#E5E8E9"/><path d="M51.359 14.703c-.698-2.9-1.849-5.432-3.458-7.588-1.61-2.157-3.714-3.891-6.323-5.178C38.974.647 35.765 0 31.953 0h-8.005c-3.813 0-7.021.646-9.625 1.938C11.713 3.224 9.609 4.953 8 7.114c-1.61 2.161-2.766 4.692-3.459 7.588-.703 2.901-1.052 6.386-1.052 10.453V60.03c0 .344.084.625.255.86.167.234.443.432.829.604.38.166.911.291 1.588.38.677.083 1.526.125 2.542.125 1.015 0 1.927-.042 2.604-.125.677-.089 1.208-.214 1.588-.38.38-.172.657-.37.829-.604.166-.24.255-.521.255-.86V26.552c0-3.265.255-5.89.76-7.88.51-1.995 1.25-3.709 2.224-5.151a9.661 9.661 0 013.776-3.302c1.547-.76 3.339-1.146 5.37-1.146h3.682c2.032 0 3.823.38 5.37 1.146a9.703 9.703 0 013.776 3.302c.974 1.442 1.714 3.156 2.224 5.15.51 1.99.76 4.616.76 7.881v33.48c0 .343.084.624.256.859.166.234.443.432.828.604.38.166.911.291 1.588.38.677.083 1.547.125 2.605.125 1.057 0 1.864-.042 2.541-.125.677-.089 1.209-.214 1.589-.38.38-.172.656-.37.828-.604.167-.24.255-.521.255-.86V25.156c0-4.067-.349-7.552-1.052-10.453z" fill="#fff"/></svg>