<svg width="116" height="38" fill="none" xmlns="http://www.w3.org/2000/svg"><g clip-path="url(#clip0_1_2277)" fill="#fff"><path d="M10.3 26.42c-.37-.45-.86-.82-1.44-1.08-.58-.27-1.31-.4-2.16-.4H5.27c-.85 0-1.57.14-2.16.4-.59.26-1.07.63-1.44 1.08-.37.45-.63.98-.79 1.58-.15.58-.23 1.29-.23 2.1v6.74c0 .13.04.25.12.35.07.09.16.15.3.21.1.04.24.07.41.09.31.04.85.03 1.16 0 .17-.02.31-.05.41-.09.13-.05.23-.12.3-.21.08-.1.12-.22.12-.35v-6.47c0-.6.05-1.09.15-1.44.1-.35.24-.65.42-.9.18-.24.41-.42.68-.55.27-.12.58-.19.93-.19h.6c.39 0 .73.07 1.02.2.28.12.51.31.68.54.18.25.33.55.42.9.1.36.15.84.15 1.44v6.47c0 .13.04.25.12.35.07.08.16.15.3.21.1.04.24.07.41.09.15.02.35.03.58.03.23 0 .42-.01.57-.03.17-.02.31-.05.41-.09.13-.05.23-.12.3-.21.08-.1.12-.22.12-.35V30.1c0-.81-.08-1.52-.23-2.1-.16-.6-.42-1.13-.79-1.58h-.01zm21.7-.31c-.49-.56-1.12-1-1.86-1.3-.73-.29-1.6-.44-2.56-.44s-1.91.17-2.67.49c-.76.33-1.41.8-1.93 1.4-.51.6-.9 1.31-1.15 2.13-.25.81-.37 1.7-.37 2.65s.12 1.89.36 2.67c.24.8.61 1.49 1.1 2.05.5.57 1.12 1 1.86 1.3.73.29 1.59.44 2.56.44s1.9-.17 2.66-.5c.77-.33 1.42-.81 1.93-1.4.51-.6.9-1.31 1.16-2.13.25-.81.38-1.7.38-2.66 0-.96-.12-1.88-.36-2.66-.24-.79-.62-1.48-1.11-2.05v.01zm-1.48 6.59a3.9 3.9 0 01-.59 1.32c-.26.36-.6.64-1 .83-.41.2-.91.3-1.47.3-.62 0-1.14-.11-1.55-.33-.4-.22-.73-.51-.97-.88-.25-.38-.43-.83-.53-1.34-.11-.53-.17-1.1-.17-1.7 0-.6.07-1.21.2-1.73.13-.51.33-.96.6-1.33.26-.36.59-.64 1-.84.41-.2.91-.3 1.48-.3.62 0 1.15.11 1.55.33.41.22.73.51.97.88.24.38.42.84.53 1.35.11.53.17 1.09.17 1.69 0 .63-.07 1.22-.2 1.74l-.02.01zm23.38-6.37c-.39-.59-.91-1.07-1.53-1.42-.63-.35-1.39-.53-2.27-.53-.36 0-.7.04-1.03.11-.33.07-.66.19-.98.35-.32.15-.65.36-.98.61-.17.12-.34.27-.51.42v-6.15a.618.618 0 00-.4-.58c-.1-.04-.23-.08-.4-.1-.29-.04-.8-.04-1.1 0-.16.02-.29.05-.4.1-.14.06-.24.14-.3.25-.06.1-.09.2-.09.32v16.95c0 .11.02.22.07.31.06.12.16.21.31.26.1.04.22.07.36.09.26.03.7.03.95 0 .13-.02.25-.05.35-.09a.589.589 0 00.4-.57v-.69c.16.15.31.28.46.41.31.26.63.48.94.64.32.17.65.3.98.38.33.08.69.12 1.07.12.83 0 1.58-.16 2.22-.47.65-.31 1.2-.77 1.65-1.37.44-.59.78-1.3 1-2.12.22-.81.33-1.74.33-2.75 0-.85-.09-1.66-.26-2.43-.18-.78-.46-1.47-.85-2.04l.01-.01zm-1.8 6.23c-.1.49-.26.93-.48 1.32-.21.38-.48.68-.82.91-.67.46-1.76.47-2.67-.17-.48-.34-1-.83-1.53-1.47V28.8c.3-.38.58-.69.85-.94.27-.26.54-.48.81-.65.25-.16.5-.28.73-.34.69-.2 1.44-.11 1.92.23.33.23.59.54.79.92.2.39.35.85.44 1.37.09.53.13 1.09.13 1.65 0 .51-.05 1.03-.15 1.52h-.02zm15.71-7.88c-.11-.05-.24-.08-.4-.1-.28-.04-.81-.04-1.1 0-.17.02-.3.05-.4.1-.14.06-.24.14-.3.25-.05.1-.08.2-.08.31v11.42c0 .13.03.24.09.33.06.1.16.18.3.23.11.05.24.08.4.1.15.02.33.03.54.03.21 0 .41-.01.55-.03.16-.02.3-.05.4-.1a.69.69 0 00.28-.21c.07-.1.11-.21.11-.35V25.24c0-.12-.03-.23-.1-.33a.76.76 0 00-.29-.23zm-.95-4.83c-.58 0-.98.11-1.23.35s-.37.63-.37 1.21.12.96.36 1.2c.24.23.64.34 1.21.34s.99-.11 1.23-.35c.25-.24.37-.64.37-1.22s-.12-.96-.36-1.19c-.24-.23-.64-.34-1.21-.34zm14.86-.71c-.1-.04-.23-.08-.4-.1-.29-.04-.8-.04-1.1 0-.16.02-.29.05-.4.1-.14.06-.24.14-.3.25-.06.1-.09.2-.09.32v16.95c0 .13.03.24.09.33.06.1.16.18.3.23.11.05.24.08.4.1.15.02.32.03.54.03.22 0 .41-.01.55-.03.16-.02.29-.05.4-.1a.69.69 0 00.28-.21c.07-.1.11-.22.11-.35V19.71c0-.13-.03-.24-.1-.34a.622.622 0 00-.29-.23h.01zm12.97.71c-.58 0-.98.11-1.23.35s-.37.63-.37 1.21.12.96.36 1.2c.24.23.64.34 1.21.34s.99-.11 1.23-.35c.25-.24.37-.64.37-1.22s-.12-.96-.36-1.19c-.24-.23-.64-.34-1.21-.34zm.95 4.83c-.11-.05-.24-.08-.4-.1-.28-.04-.81-.04-1.1 0-.17.02-.3.05-.4.1-.14.06-.24.14-.3.25a.65.65 0 00-.08.31v11.42c0 .13.03.24.09.33.06.1.16.18.3.23.11.05.24.08.4.1.14.02.32.03.54.03.22 0 .41-.01.55-.03.16-.02.3-.05.4-.1a.69.69 0 00.28-.21c.07-.1.11-.21.11-.35V25.24c0-.12-.03-.23-.1-.33a.76.76 0 00-.29-.23zm18.38 6.48c-.29-.27-.62-.5-1-.7-.35-.18-.72-.34-1.09-.49-.36-.14-.71-.28-1.06-.42-.33-.13-.63-.28-.88-.43-.24-.15-.43-.32-.58-.52-.13-.17-.19-.38-.19-.65 0-.2.04-.38.11-.54.07-.16.18-.3.32-.42s.33-.22.56-.28c.51-.15 1.3-.14 1.83.02.3.09.55.18.77.28.21.1.39.19.52.28.35.23.58.24.8.09.08-.06.15-.15.2-.27.04-.09.07-.21.09-.34.01-.11.02-.25.02-.41 0-.16 0-.28-.02-.38-.01-.1-.03-.19-.04-.25a.794.794 0 00-.1-.27.86.86 0 00-.25-.26c-.1-.08-.25-.16-.44-.26s-.41-.18-.68-.27c-.26-.08-.55-.15-.86-.2-1.07-.18-2.09-.07-2.88.22-.55.2-1.02.47-1.39.8-.38.34-.67.73-.86 1.18-.19.45-.28.92-.28 1.4 0 .55.09 1.03.27 1.43.18.39.42.74.72 1.03.29.28.62.52.99.72.35.18.71.35 1.08.5.36.14.71.28 1.05.41.32.12.61.27.86.43.24.15.43.32.57.51.13.17.19.38.19.64s-.05.5-.14.68c-.09.19-.22.34-.4.46-.18.13-.4.23-.65.29-.61.16-1.48.13-2.06-.05-.35-.11-.65-.23-.9-.36-.26-.13-.47-.25-.65-.36-.41-.26-.66-.26-.89-.12-.1.06-.17.16-.22.29a2.132 2.132 0 00-.11.77c0 .29.02.52.07.7.05.2.15.37.29.5.11.1.28.21.51.33.22.11.48.22.78.32.31.1.65.19 1.03.25.38.07.79.1 1.21.1.68 0 1.32-.08 1.9-.25.59-.17 1.1-.43 1.52-.76.43-.34.77-.76 1-1.26.23-.5.35-1.06.35-1.69 0-.53-.09-1-.27-1.39-.18-.39-.42-.73-.72-1v-.03zM1.64 10.53c.52.31 1.13.46 1.82.46.57 0 1.1-.12 1.57-.37s.87-.59 1.2-1.03c.32-.44.54-.96.66-1.55H5.46c-.13.51-.39.91-.77 1.18-.38.27-.79.41-1.22.41-.61 0-1.1-.21-1.47-.64-.37-.43-.56-1-.56-1.7V4.56c0-.71.19-1.28.56-1.71.37-.43.86-.65 1.47-.65.29 0 .57.07.85.2s.51.32.71.56c.2.24.35.52.43.84h1.43c-.11-.59-.33-1.11-.65-1.55-.32-.44-.72-.79-1.2-1.03-.48-.25-1-.37-1.58-.37-.69 0-1.3.15-1.82.46-.52.31-.92.74-1.21 1.29C.14 3.16 0 3.81 0 4.56v2.73c0 .74.14 1.39.43 1.95s.69.99 1.21 1.29zm6.75-5.48h2.06v5.84h1.39V5.05h2.06V3.79H8.39v1.26zm10.6-1.36c-.42 0-.81.11-1.16.34-.28.18-.5.44-.7.75V3.8h-1.39v9.97h1.39V9.94c.15.3.35.55.63.73.33.21.71.32 1.16.32.78 0 1.38-.25 1.81-.75.43-.5.64-1.21.64-2.11V6.59c0-.92-.21-1.63-.62-2.14-.42-.5-1-.75-1.76-.75v-.01zm.99 4.44c0 .51-.13.91-.38 1.19-.25.28-.61.42-1.07.42-.3 0-.55-.06-.76-.17-.21-.11-.37-.28-.47-.49-.11-.21-.16-.47-.16-.78V6.37c0-.3.05-.56.16-.77.11-.21.27-.37.47-.48.21-.11.46-.16.76-.16.46 0 .82.14 1.07.43.25.29.38.69.38 1.21v1.54-.01zm5.43-1.44c-.8 0-1.4.17-1.79.52-.4.35-.6.88-.6 1.58 0 .74.22 1.29.65 1.65.44.36 1.09.54 1.96.54.3 0 .56-.03.8-.09.23-.06.44-.15.62-.28.13-.08.22-.21.31-.32v.59h1.33V6.33c0-.84-.24-1.49-.73-1.95-.49-.46-1.18-.69-2.06-.69-.54 0-1.03.09-1.47.27-.44.18-.79.43-1.06.75l1.02.7c.21-.16.46-.28.73-.37.27-.08.54-.13.82-.13.46 0 .81.13 1.06.39s.37.62.37 1.08v.3h-1.96v.01zm1.96 2.46c0 .24-.13.42-.4.53-.26.11-.66.17-1.19.17-.48 0-.85-.09-1.09-.26-.24-.17-.36-.44-.36-.8 0-.33.09-.58.27-.74.18-.16.45-.24.81-.24h1.95v1.34h.01zm9.03-5.36h-1.55l-1.5 2.44-1.56-2.44h-1.56l2.36 3.5-2.46 3.6h1.54l1.68-2.45 1.61 2.45h1.55l-2.44-3.55 2.33-3.55zm4.16-.1c-.93 0-1.65.27-2.16.8-.51.53-.77 1.29-.77 2.26v1.16c0 .98.25 1.74.77 2.28.51.54 1.23.81 2.16.81.93 0 1.65-.27 2.16-.8.51-.54.77-1.29.77-2.27V6.75c0-.97-.25-1.72-.77-2.26-.52-.54-1.23-.8-2.16-.8zm1.53 4.23c0 .55-.13.98-.4 1.29-.27.31-.64.46-1.13.46-.49 0-.86-.15-1.13-.46-.27-.31-.4-.73-.4-1.29V6.74c0-.55.13-.98.4-1.28.27-.3.64-.45 1.13-.45.49 0 .87.15 1.13.45.27.3.4.73.4 1.28v1.18zm4.77 2.97h2.1c.71 0 1.26-.16 1.65-.47.39-.32.58-.76.58-1.34v-.02c0-.5-.15-.91-.44-1.24-.29-.33-.7-.54-1.23-.65.49-.08.87-.26 1.13-.54.27-.28.4-.64.4-1.07 0-.56-.18-.99-.54-1.3-.36-.31-.88-.46-1.54-.46h-3.51v7.1h1.39l.01-.01zm0-5.84h2.07c.48 0 .72.26.72.79 0 .46-.25.68-.74.68h-2.06V5.04l.01.01zm0 2.73h2.06c.28 0 .49.08.64.25.15.17.23.39.23.69v.02c0 .28-.08.5-.23.65-.15.16-.36.24-.64.24h-2.06V7.78zm8.9-4.09c-.93 0-1.65.27-2.16.8-.51.53-.77 1.29-.77 2.26v1.16c0 .98.25 1.74.77 2.28.51.54 1.23.81 2.16.81.93 0 1.65-.27 2.16-.8.51-.54.77-1.29.77-2.27V6.75c0-.97-.25-1.72-.77-2.26-.52-.54-1.23-.8-2.16-.8zm1.53 4.23c0 .55-.13.98-.4 1.29-.27.31-.64.46-1.13.46-.49 0-.86-.15-1.13-.46-.27-.31-.4-.73-.4-1.29V6.74c0-.55.13-.98.4-1.28.27-.3.64-.45 1.13-.45.49 0 .87.15 1.13.45.27.3.4.73.4 1.28v1.18zm6.23-5.47h.12c.68 0 1.19-.2 1.53-.61.34-.41.51-1.02.51-1.83h-1.12c0 .91-.31 1.36-.92 1.36h-.12c-.61 0-.92-.45-.92-1.36h-1.12c0 .82.17 1.43.51 1.83.34.41.85.61 1.53.61zm2.99 8.43V3.79h-1.2l-3.26 4.74V3.79h-1.38v7.09h1.21l3.24-4.62v4.62h1.39zm9.14-6.92c-.62 0-1.12.14-1.49.41-.15.11-.27.26-.38.42v-.45c0-.52.15-.92.46-1.18.31-.26.77-.39 1.38-.39.78 0 1.37-.15 1.76-.45.39-.3.58-.76.58-1.37h-1.29c0 .21-.1.37-.29.47-.19.1-.49.16-.88.16-1.02 0-1.78.25-2.29.73s-.76 1.2-.76 2.16v3.42c0 .98.25 1.74.77 2.28.51.54 1.23.81 2.16.81.93 0 1.65-.27 2.16-.8.51-.54.77-1.29.77-2.27v-.9c0-.97-.23-1.72-.69-2.26-.46-.53-1.12-.8-1.96-.8l-.01.01zm1.26 3.96c0 .55-.13.98-.4 1.29-.27.31-.65.46-1.13.46-.48 0-.86-.15-1.12-.46-.27-.31-.4-.73-.4-1.29v-.9c0-.55.13-.98.4-1.28.27-.3.64-.45 1.12-.45.48 0 .87.15 1.13.45.26.3.4.73.4 1.28v.9zm6.62-4.23c-.42 0-.81.11-1.16.34-.28.18-.5.44-.7.75V3.8h-1.39v9.97h1.39V9.94c.15.3.35.56.63.73.33.21.71.32 1.16.32.78 0 1.38-.25 1.81-.75.43-.5.64-1.21.64-2.11V6.59c0-.92-.21-1.63-.62-2.14-.42-.5-1-.75-1.76-.75v-.01zm.99 4.44c0 .51-.13.91-.38 1.19-.25.28-.61.42-1.07.42-.3 0-.55-.06-.76-.17-.21-.11-.37-.28-.47-.49-.1-.21-.16-.47-.16-.78V6.37c0-.3.05-.56.16-.77.11-.21.27-.37.47-.48.21-.11.46-.16.76-.16.46 0 .82.14 1.07.43.25.29.38.69.38 1.21v1.54-.01zm9.03-1.38c0-.97-.25-1.72-.77-2.26-.51-.53-1.23-.8-2.16-.8-.93 0-1.65.27-2.16.8-.51.53-.77 1.29-.77 2.26v1.16c0 .98.25 1.74.77 2.28.51.54 1.23.81 2.16.81.93 0 1.65-.27 2.16-.8.51-.54.77-1.29.77-2.27V6.75zm-1.39 1.18c0 .55-.13.98-.4 1.29-.27.31-.64.46-1.13.46-.49 0-.86-.15-1.13-.46-.27-.31-.4-.73-.4-1.29V6.75c0-.55.13-.98.4-1.28.27-.3.64-.45 1.13-.45.49 0 .87.15 1.13.45.27.3.4.73.4 1.28v1.18zm9.06-4.14h-1.68l-1.83 2.88h-.79V3.79h-1.39v7.1h1.39V8h.83l2.02 2.89h1.87l-2.83-3.65 2.41-3.45zm6.72 6.14l-.92-.92c-.22.21-.47.36-.75.48-.28.11-.56.17-.84.17-.57 0-1-.16-1.32-.47-.3-.3-.45-.74-.46-1.29h4.47v-.46c0-1.18-.25-2.11-.73-2.76-.49-.66-1.18-.98-2.08-.98-.95 0-1.68.29-2.2.87-.52.58-.78 1.4-.78 2.45v.8c0 1.02.27 1.8.81 2.35s1.31.83 2.3.83c.44 0 .88-.09 1.32-.28.44-.19.83-.45 1.18-.78v-.01zm-3.85-4.46c.29-.35.7-.52 1.22-.52.43 0 .78.16 1.04.49.26.32.41.77.45 1.35h-3.12c.02-.55.15-1 .42-1.31l-.01-.01zm10.96-1.02c-.41-.5-1-.75-1.76-.75-.42 0-.81.11-1.16.34-.28.18-.5.44-.7.75v-.98h-1.39v9.96h1.39V9.94c.15.3.35.55.63.73.33.21.71.32 1.16.32.78 0 1.38-.25 1.81-.75.43-.5.64-1.21.64-2.11V6.59c0-.92-.21-1.63-.62-2.14zm-.77 3.68c0 .51-.13.91-.38 1.19-.25.28-.61.42-1.07.42-.3 0-.55-.06-.76-.17-.21-.11-.37-.28-.47-.49-.1-.21-.16-.47-.16-.78V6.37c0-.3.05-.56.16-.77.11-.21.27-.37.47-.48.21-.11.46-.16.76-.16.46 0 .82.14 1.07.43.25.29.38.69.38 1.21v1.54-.01z"/></g><defs><clipPath id="clip0_1_2277"><path fill="#fff" d="M0 0h115.67v37.51H0z"/></clipPath></defs></svg>