<svg width="78" height="80" fill="none" xmlns="http://www.w3.org/2000/svg"><g clip-path="url(#clip0_636_4825)" fill="#E18A04"><path d="M35 50h-7.5v2.5H35V50zm10-40H27.5v2.5H45V10zm0 5H27.5v2.5H45V15zm0 5H17.5v2.5H45V20zm0 5H17.5v2.5H45V25zm0 5H22.5v2.5H45V30zm0 5H22.5v2.5H45V35zm0 5H22.5v2.5H45V40zM25 17.5h-7.5V10H25v7.5zM20 15h2.5v-2.5H20V15zm27.5 40H21.25v2.5H47.5V55z"/><path d="M52.5 40H50V2.5H12.5v25H10v-25C10 1.125 11.125 0 12.5 0H50c1.375 0 2.5 1.125 2.5 2.5V40zm-45 28.75H5V65.2L.062 50.4a1.252 1.252 0 010-.8L3.9 38.35c.1-.275.287-.513.537-.663l6.2-3.75 1.3 2.138-5.812 3.512-3.55 10.425 4.862 14.6a1.4 1.4 0 01.063.4v3.75-.012z"/><path d="M22.5 68.75H20V53.888L17.5 42.5V35c0-1.425-1.025-2.5-2.387-2.5-1.363 0-2.613 1.15-2.613 2.5v10.175l-1.262 8.75-2.476-.35L10 44.912V35c0-2.712 2.35-5 5.113-5C17.875 30 20 32.2 20 35v7.362l2.5 11.388v15zM20 72.5h-2.5V75H20v-2.5zm37.5-21.25H55V32.5a3.761 3.761 0 013.75-3.75 3.761 3.761 0 013.75 3.75V40H60v-7.5c0-.688-.563-1.25-1.25-1.25-.688 0-1.25.563-1.25 1.25v18.75zm10-8.75H65V40c0-.688-.563-1.25-1.25-1.25v-2.5A3.761 3.761 0 0167.5 40v2.5zm5 2.5H70v-2.5c0-.688-.563-1.25-1.25-1.25v-2.5a3.761 3.761 0 013.75 3.75V45zm1.25 23.75h-2.5l.05-2.862L75 53.562V45c0-.688-.563-1.25-1.25-1.25v-2.5A3.761 3.761 0 0177.5 45l-.05 9.112-3.7 12.325v2.313z"/><path d="M62.5 32.5H60v15h2.5v-15zm5 10H65v5h2.5v-5zm5 2.5H70v2.5h2.5V45zM58.75 68.75h-2.5v-4.588L52.638 59.3 50 54.038v-7.8c0-2.038 1.775-3.75 3.862-3.75h2.388v2.5h-2.388c-.712 0-1.362.6-1.362 1.25v7.2l2.313 4.637 3.937 5.25v5.425zm3.75 3.75H60V75h2.5v-2.5zM60 21.25h-2.5v2.5H60v-2.5zm0-5h-2.5v2.5H60v-2.5zm0-5h-2.5v2.5H60v-2.5z"/><path d="M75 80h-2.5V70h-15v10H55V70c0-1.375 1.125-2.5 2.5-2.5h15c1.375 0 2.5 1.125 2.5 2.5v10zm-50 0h-2.5V70h-15v10H5V70c0-1.375 1.125-2.5 2.5-2.5h15c1.375 0 2.5 1.125 2.5 2.5v10z"/></g><defs><clipPath id="clip0_636_4825"><path fill="#fff" d="M0 0h77.5v80H0z"/></clipPath></defs></svg>