<svg width="80" height="80" fill="none" xmlns="http://www.w3.org/2000/svg"><g clip-path="url(#clip0_359_1576)" fill="#E18A04"><path d="M40 80C17.937 80 0 62.05 0 40S17.938 0 40 0c4.888 0 9.663.875 14.188 2.587L53.3 4.925A37.352 37.352 0 0040 2.5C19.325 2.5 2.5 19.325 2.5 40S19.325 77.5 40 77.5 77.5 60.675 77.5 40c0-4.587-.813-9.063-2.425-13.3l2.337-.887C79.137 30.337 80 35.112 80 40c0 22.05-17.938 40-40 40z"/><path d="M77.871.366l-38.749 38.75 1.768 1.767 38.75-38.75L77.87.367z"/><path d="M80 10H70V0h2.5v7.5H80V10z"/><path d="M75 15H65V5h2.5v7.5H75V15z"/><path d="M40 72.5C22.075 72.5 7.5 57.925 7.5 40S22.075 7.5 40 7.5 72.5 22.075 72.5 40 57.925 72.5 40 72.5zM40 10c-16.538 0-30 13.462-30 30s13.462 30 30 30 30-13.462 30-30-13.462-30-30-30z"/><path d="M40 65c-13.788 0-25-11.212-25-25s11.212-25 25-25 25 11.212 25 25-11.212 25-25 25zm0-47.5c-12.413 0-22.5 10.1-22.5 22.5S27.587 62.5 40 62.5 62.5 52.4 62.5 40 52.413 17.5 40 17.5z"/><path d="M40 57.5c-9.65 0-17.5-7.85-17.5-17.5S30.35 22.5 40 22.5 57.5 30.35 57.5 40 49.65 57.5 40 57.5zM40 25c-8.275 0-15 6.725-15 15s6.725 15 15 15 15-6.725 15-15-6.725-15-15-15z"/><path d="M40 50c-5.513 0-10-4.487-10-10s4.487-10 10-10 10 4.487 10 10-4.487 10-10 10zm0-17.5a7.506 7.506 0 00-7.5 7.5c0 4.138 3.362 7.5 7.5 7.5s7.5-3.362 7.5-7.5-3.362-7.5-7.5-7.5z"/><path d="M40 42.5a2.5 2.5 0 100-5 2.5 2.5 0 000 5zM6.25 80h-5c-.437 0-.837-.225-1.062-.588a1.233 1.233 0 01-.05-1.212l7.5-15 2.237 1.112-6.6 13.188h2.463l8.387-8.388 1.763 1.763-8.75 8.75a1.24 1.24 0 01-.888.362V80zm72.5 0h-5a1.29 1.29 0 01-.888-.362l-8.75-8.75 1.763-1.763 8.387 8.388h2.463l-6.6-13.188 2.237-1.113 7.5 15c.188.388.175.85-.05 1.213a1.248 1.248 0 01-1.062.588V80z"/></g><defs><clipPath id="clip0_359_1576"><path fill="#fff" d="M0 0h80v80H0z"/></clipPath></defs></svg>