<svg width="80" height="80" fill="none" xmlns="http://www.w3.org/2000/svg"><g clip-path="url(#clip0_359_1524)" fill="#E18A04"><path d="M62.5 80h-60V0h60v80zM5 77.5h55v-75H5v75z"/><path d="M15 1.25h-2.5v77.5H15V1.25zM10 12.5H0V15h10v-2.5zm0 5H0V20h10v-2.5zm0 5H0V25h10v-2.5zm0 5H0V30h10v-2.5zM10 50H0v2.5h10V50zm0 5H0v2.5h10V55zm0 5H0v2.5h10V60zm0 5H0v2.5h10V65zM75 8.75h-2.5V65H75V8.75zm-7.5 0H65V65h2.5V8.75z"/><path d="M75 10H65V0h10v10zm-7.5-2.5h5v-5h-5v5zM70 80c-.438 0-.85-.225-1.075-.612l-3.75-6.25A1.287 1.287 0 0165 72.5V65c0-.688.563-1.25 1.25-1.25h7.5c.688 0 1.25.563 1.25 1.25v7.5c0 .225-.063.45-.175.638l-3.75 6.25A1.265 1.265 0 0170 80zm-2.5-7.85l2.5 4.162 2.5-4.162v-5.9h-5v5.9zm6.25-24.65h-7.5V50h7.5v-2.5zM80 35h-2.5V16.25h-3.75v-2.5H80V35zm-36.25 3.75h-2.5v2.5h2.5v-2.5zm-5 0h-2.5v2.5h2.5v-2.5zm-5 0h-2.5v2.5h2.5v-2.5z"/><path d="M55 50H20V30h35v20zm-32.5-2.5h30v-15h-30v15zM55 7.5H20V10h35V7.5zM55 70H20v2.5h35V70z"/></g><defs><clipPath id="clip0_359_1524"><path fill="#fff" d="M0 0h80v80H0z"/></clipPath></defs></svg>