<svg width="83" height="80" fill="none" xmlns="http://www.w3.org/2000/svg"><g clip-path="url(#clip0_218_908)" fill="#E18A04"><path d="M2.58 80H0V67.097c0-9.213 8.052-13.084 15.071-15.42l10.736-4.774V41.29h2.58v6.452c0 .516-.297.968-.761 1.174l-11.613 5.161C6.568 57.24 2.58 61.11 2.58 67.097V80z"/><path d="M15.484 54.194h-2.58V80h2.58V54.194zm19.356-9.033c-10.053 0-13.975-9.729-14.182-16.232l-.916-.916a1.277 1.277 0 01-.374-.916v-2.58h2.58v2.05l.917.917c.245.245.374.568.374.916 0 5.484 3.148 14.194 11.613 14.194s11.613-8.71 11.613-14.194c0-.348.142-.671.374-.916l.916-.916v-2.052h2.58v2.58c0 .35-.141.672-.373.917l-.916.916c-.207 6.503-4.13 16.232-14.181 16.232h-.026zm-.001 12.904c-.374 0-.736-.168-.98-.452l-7.743-9.032 1.962-1.678 6.76 7.884 6.762-7.884 1.961 1.678-7.742 9.032a1.304 1.304 0 01-.98.452zm-.001-33.549c-9.38 0-19.355-2.71-19.355-7.742h2.581c0 2.103 6.53 5.162 16.774 5.162 10.245 0 16.774-3.059 16.774-5.162h2.581c0 5.032-9.974 7.742-19.355 7.742z"/><path d="M51.613 16.774h-2.58c0-7.832-6.362-14.193-14.194-14.193-7.833 0-14.194 6.36-14.194 14.193h-2.58C18.064 7.523 25.587 0 34.838 0s16.774 7.523 16.774 16.774z"/><path d="M38.71 6.452h-2.581A5.16 5.16 0 0141.29 1.29v2.58a2.588 2.588 0 00-2.58 2.582zm0 0h-2.581v10.322h2.58V6.452zm-5.162 0h-2.58a2.589 2.589 0 00-2.581-2.581V1.29a5.16 5.16 0 015.161 5.16zm0 0h-2.58v10.322h2.58V6.452zM23.226 50.323h-2.58V80h2.58V50.323zM49.032 80h-2.58V51.123L42 48.903a1.29 1.29 0 01-.71-1.148v-6.452h2.58v5.652l4.452 2.22c.439.219.71.67.71 1.148V80zm33.549 0H51.613V37.42h5.162V40h-2.581v37.42H80V40h-2.58v-2.58h5.161V80z"/><path d="M74.84 42.58H59.354v-7.74H74.84v7.742zM61.935 40H72.26v-2.58H61.936V40zm15.485 5.161H61.934v2.581H77.42v-2.58zm-18.065 0h-2.58v2.581h2.58v-2.58zm18.065 5.162H61.934v2.58H77.42v-2.58zm-18.065 0h-2.58v2.58h2.58v-2.58zm18.065 5.161H61.934v2.58H77.42v-2.58zm-18.065 0h-2.58v2.58h2.58v-2.58zm18.065 5.161H61.934v2.58H77.42v-2.58zm-18.065 0h-2.58v2.58h2.58v-2.58zM77.42 72.258h-6.452v2.58h6.451v-2.58zM36.13 60.645h-2.581v2.58h2.58v-2.58zm0 5.161h-2.581v2.581h2.58v-2.58zm0 5.162h-2.581v2.58h2.58v-2.58z"/></g><defs><clipPath id="clip0_218_908"><path fill="#fff" d="M0 0h82.581v80H0z"/></clipPath></defs></svg>