<svg width="80" height="80" fill="none" xmlns="http://www.w3.org/2000/svg"><g clip-path="url(#clip0_218_940)" fill="#E18A04"><path d="M76.25 41.25h-2.5c0-11.387-9.088-21.9-18.063-26.387l1.113-2.238c9.663 4.825 19.438 16.212 19.438 28.612l.012.013zm-70 0h-2.5c0-12.413 9.775-23.788 19.438-28.613l1.112 2.238C15.325 19.363 6.237 29.862 6.237 41.262l.013-.012z"/><path d="M60 41.25h-2.5v-15C57.5 14.45 51.487 2.5 40 2.5c-11.488 0-17.5 11.95-17.5 23.75v15H20v-15C20 13.2 26.875 0 40 0s20 13.2 20 26.25v15z"/><path d="M45 22.5h-2.5v18.75H45V22.5zm-7.5 0H35v18.75h2.5V22.5z"/><path d="M40 25c-5.513 0-10-4.488-10-10S34.487 5 40 5s10 4.488 10 10-4.487 10-10 10zm0-17.5a7.506 7.506 0 00-7.5 7.5c0 4.137 3.362 7.5 7.5 7.5s7.5-3.363 7.5-7.5c0-4.137-3.362-7.5-7.5-7.5zM75 50H5c-2.763 0-5-2.237-5-5s2.237-5 5-5h70c2.763 0 5 2.237 5 5s-2.237 5-5 5zM5 42.5A2.507 2.507 0 002.5 45c0 1.375 1.125 2.5 2.5 2.5h70c1.375 0 2.5-1.125 2.5-2.5s-1.125-2.5-2.5-2.5H5zm51.25 20h-55C.562 62.5 0 61.937 0 61.25v-5C0 55.562.563 55 1.25 55h55c.688 0 1.25.563 1.25 1.25v5c0 .688-.563 1.25-1.25 1.25zM2.5 60H55v-2.5H2.5V60z"/><path d="M67.5 80C60.612 80 55 74.388 55 67.5V56.25c0-.688.563-1.25 1.25-1.25H67.5C74.388 55 80 60.612 80 67.5S74.388 80 67.5 80zm-10-22.5v10c0 5.513 4.487 10 10 10s10-4.487 10-10-4.487-10-10-10h-10z"/><path d="M67.5 72.5c-2.763 0-5-2.237-5-5s2.237-5 5-5 5 2.237 5 5-2.237 5-5 5zm0-7.5a2.507 2.507 0 00-2.5 2.5c0 1.375 1.125 2.5 2.5 2.5s2.5-1.125 2.5-2.5-1.125-2.5-2.5-2.5zm-5-5H60v2.5h2.5V60zm-60-7.5H0v3.75h2.5V52.5zm5 3.75H5v2.5h2.5v-2.5zm7.5 0h-2.5v2.5H15v-2.5zm7.5 0H20v2.5h2.5v-2.5zm7.5 0h-2.5v2.5H30v-2.5zm7.5 0H35v2.5h2.5v-2.5zm7.5 0h-2.5v2.5H45v-2.5zm7.5 0H50v2.5h2.5v-2.5zm-26.25 20H22.5c-.2 0-.387-.05-.563-.138L20 75.138l-1.938.974a1.246 1.246 0 01-.562.138H3.75a1.29 1.29 0 01-.888-.362l-2.5-2.5A1.237 1.237 0 010 72.5V70c0-.338.138-.65.362-.888l2.5-2.5a1.24 1.24 0 01.888-.362H17.5c.2 0 .387.05.563.138l1.937.974 1.938-.974c.175-.088.362-.138.562-.138h3.75c.688 0 1.25.563 1.25 1.25V75c0 .688-.563 1.25-1.25 1.25zm-3.45-2.5H25v-5h-2.2l-2.238 1.112c-.35.175-.762.175-1.112 0l-2.238-1.112H4.262L2.5 70.513v1.462l1.763 1.763H17.2l2.238-1.113c.35-.175.762-.175 1.112 0l2.238 1.112.012.013z"/><path d="M42.5 70H26.25v2.5H42.5V70zm7.5-1.25h-7.5v2.5H50v-2.5zm0 2.5h-7.5v2.5H50v-2.5zM40 20c-2.763 0-5-2.238-5-5s2.237-5 5-5 5 2.238 5 5-2.237 5-5 5zm0-7.5a2.507 2.507 0 00-2.5 2.5c0 1.375 1.125 2.5 2.5 2.5s2.5-1.125 2.5-2.5-1.125-2.5-2.5-2.5z"/></g><defs><clipPath id="clip0_218_940"><path fill="#fff" d="M0 0h80v80H0z"/></clipPath></defs></svg>