<svg width="70" height="80" fill="none" xmlns="http://www.w3.org/2000/svg"><g clip-path="url(#clip0_359_1591)" fill="#E18A04"><path d="M34.956 80l-.474-.187C34.132 79.675 0 65.206 0 17.478v-6.242h17.478c7.965 0 15.119-10.574 15.194-10.674L33.046 0h3.833l.374.562c.075.112 7.229 10.674 15.194 10.674h17.478v6.242c0 47.728-34.145 62.185-34.482 62.335L34.97 80h-.013zM2.496 13.733v3.745c0 42.934 28.428 57.903 32.46 59.8 4.033-1.91 32.46-16.866 32.46-59.8v-3.745H52.435c-8.24 0-15.182-8.877-16.88-11.236h-1.198c-1.698 2.36-8.64 11.236-16.879 11.236H2.497z"/><path d="M34.956 72.584l-.599-.324c-.287-.15-28.115-15.768-28.115-53.533v-1.249h11.236c11.56 0 16.205-7.778 16.392-8.115l1.086-1.872 1.074 1.885c.187.324 4.831 8.115 16.392 8.115h11.236v1.248c0 37.753-27.84 53.37-28.115 53.533l-.6.325.013-.013zM8.752 19.975c.549 32.31 22.297 47.29 26.204 49.738 3.92-2.435 25.656-17.428 26.205-49.738h-8.727c-9.9 0-15.33-5.169-17.478-7.828-2.147 2.66-7.578 7.828-17.478 7.828H8.752z"/><path d="M33.92 71.848c-.524-.774-12.696-19.426-12.696-53.121h2.497c0 32.883 12.147 51.56 12.272 51.747L33.92 71.86v-.012z"/><path d="M35.992 71.848l-2.072-1.386c.125-.187 12.272-18.864 12.272-51.748h2.497c0 33.696-12.172 52.347-12.697 53.121v.013zm.213-49.376h-2.497v2.497h2.497v-2.497zm0-4.994h-2.497v2.497h2.497v-2.497zm0 9.988h-2.497v2.497h2.497v-2.497zM16.23 22.472h-2.498v2.497h2.497v-2.497zm0 4.994h-2.498v2.497h2.497v-2.497zm39.95-4.994h-2.497v2.497h2.496v-2.497zm0 4.994h-2.497v2.497h2.496v-2.497z"/></g><defs><clipPath id="clip0_359_1591"><path fill="#fff" d="M0 0h69.913v80H0z"/></clipPath></defs></svg>