<svg width="73" height="80" fill="none" xmlns="http://www.w3.org/2000/svg"><g clip-path="url(#clip0_359_1553)" fill="#E18A04"><path d="M72.5 80H70V66.25c0-6.55-7.788-10.025-15.4-12.563-5.525-1.837-12.1-4.624-12.1-7.437V40H45v6.25c.362.938 5.225 3.337 10.4 5.063 8.462 2.812 17.1 6.8 17.1 14.937V80zm-70 0H0V66.25c0-8.138 8.65-12.112 17.1-14.938 5.162-1.724 10.025-4.137 10.412-5.15V40H30v6.25c0 2.813-6.587 5.6-12.1 7.438C10.288 56.224 2.5 59.7 2.5 66.25V80z"/><path d="M16.25 53.75h-2.5V80h2.5V53.75zm42.5 0h-2.5V80h2.5V53.75zm-22.5-10c-9.737 0-13.537-9.425-13.737-15.725l-.888-.887a1.237 1.237 0 01-.362-.888v-2.5h2.5v1.988l.887.887c.238.238.363.55.363.887 0 5.313 3.05 13.75 11.25 13.75s11.25-8.437 11.25-13.75c0-.337.137-.65.362-.887l.888-.887V23.75h2.5v2.5c0 .337-.138.65-.363.887l-.887.888c-.2 6.3-4 15.725-13.738 15.725h-.025zm0 12.5c-.363 0-.713-.163-.95-.438l-7.5-8.75 1.9-1.624 6.55 7.637 6.55-7.638 1.9 1.626-7.5 8.75a1.264 1.264 0 01-.95.437z"/><path d="M36.25 23.75c-9.087 0-18.75-2.625-18.75-7.5H20c0 2.038 6.325 5 16.25 5s16.25-2.962 16.25-5H55c0 4.875-9.663 7.5-18.75 7.5zm16.25-7.5H50C50 8.662 43.837 2.5 36.25 2.5S22.5 8.662 22.5 16.25H20C20 7.287 27.288 0 36.25 0S52.5 7.287 52.5 16.25z"/><path d="M40 6.25h-2.5c0-2.763 2.237-5 5-5v2.5a2.507 2.507 0 00-2.5 2.5zm0 0h-2.5v10H40v-10zm-5 0h-2.5c0-1.375-1.125-2.5-2.5-2.5v-2.5c2.763 0 5 2.237 5 5zm0 0h-2.5v10H35v-10zM23.75 50h-2.5v30h2.5V50zm27.5 0h-2.5v30h2.5V50zm-5 10h-20v2.5h20V60zm0 7.5h-20V70h20v-2.5zm0 7.5h-20v2.5h20V75z"/></g><defs><clipPath id="clip0_359_1553"><path fill="#fff" d="M0 0h72.5v80H0z"/></clipPath></defs></svg>