<svg width="30" height="30" fill="none" xmlns="http://www.w3.org/2000/svg"><g clip-path="url(#clip0_16_156)" fill="#fff"><path d="M21.058 30h-.016c-3.225 0-8.826-3.402-13.324-7.937C3.311 17.623-.008 11.932 0 8.863.004 6.886 4.407.226 6.689.013c.26-.038 1.82-.174 4.489 2.5 2.702 2.701 2.792 4.493 2.796 4.69a.617.617 0 01-.18.441L9.81 11.627c.008.642 1.013 3.282 3.084 5.358 1.89 1.89 4.514 3.056 5.363 3.085l3.978-3.979a.628.628 0 01.515-.177c.087.013 2.121.289 4.642 2.813 2.52 2.525 2.5 4.304 2.488 4.49-.173 2.364-6.804 6.787-8.827 6.787L21.06 30z"/><path fill-rule="evenodd" clip-rule="evenodd" d="M24.819 7.834c.68 0 1.235.473 1.235 1.054 0 .58-.556 1.054-1.235 1.054h-4.91a1.24 1.24 0 01-1.235-1.235v-4.91c0-.68.474-1.235 1.054-1.235.58 0 1.055.556 1.055 1.235v1.31c0 .68.39.844.873.362l3.834-3.834c.482-.482 1.211-.54 1.619-.128.407.412.354 1.137-.128 1.619L23.147 6.96c-.482.482-.317.874.362.874h1.31z"/></g><defs><clipPath id="clip0_16_156"><path fill="#fff" d="M0 0h29.889v30H0z"/></clipPath></defs></svg>