<svg width="35" height="35" fill="none" xmlns="http://www.w3.org/2000/svg"><path d="M29.167 1.458H5.833C2.625 1.458 0 4.083 0 7.292v14.583c0 3.208 2.625 5.833 5.833 5.833v4.375c0 1.313 1.604 1.896 2.48 1.021l5.395-5.396h15.459c3.208 0 5.833-2.625 5.833-5.833V7.292c0-3.209-2.625-5.834-5.833-5.834zm-8.75 17.5h-8.75c-.875 0-1.459-.583-1.459-1.458s.584-1.458 1.459-1.458h8.75c.875 0 1.458.583 1.458 1.458s-.583 1.458-1.458 1.458zm2.916-5.833H11.667c-.875 0-1.459-.583-1.459-1.458s.584-1.459 1.459-1.459h11.666c.875 0 1.459.584 1.459 1.459 0 .875-.584 1.458-1.459 1.458z" fill="#fff"/></svg>