<svg width="23" height="23" fill="none" xmlns="http://www.w3.org/2000/svg"><g clip-path="url(#clip0_16_185)"><path d="M16.145 23h-.013c-2.472 0-6.767-2.608-10.215-6.085C2.54 13.511-.006 9.148 0 6.795.003 5.28 3.379.174 5.128.01c.199-.028 1.396-.132 3.442 1.917 2.071 2.071 2.14 3.445 2.144 3.597a.473.473 0 01-.14.337L7.522 8.914c.007.492.777 2.517 2.365 4.108 1.45 1.45 3.461 2.343 4.112 2.365l3.05-3.05a.482.482 0 01.395-.136c.066.01 1.626.221 3.558 2.157 1.933 1.935 1.917 3.3 1.907 3.441-.132 1.813-5.216 5.204-6.766 5.204l.003-.003z" fill="#E18A04"/></g><defs><clipPath id="clip0_16_185"><path fill="#fff" d="M0 0h22.915v23H0z"/></clipPath></defs></svg>